<?xml version="1.0" encoding="utf-8"?>
<!-- Generator: Adobe Illustrator 16.0.0, SVG Export Plug-In . SVG Version: 6.00 Build 0)  -->
<!DOCTYPE svg PUBLIC "-//W3C//DTD SVG 1.1//EN" "http://www.w3.org/Graphics/SVG/1.1/DTD/svg11.dtd">
<svg version="1.1" id="Camada_1" xmlns="http://www.w3.org/2000/svg" xmlns:xlink="http://www.w3.org/1999/xlink" x="0px" y="0px"
	 width="510.236px" height="510.236px" viewBox="0.882 0.882 510.236 510.236" enable-background="new 0.882 0.882 510.236 510.236"
	 xml:space="preserve">
<g id="icomoon-ignore">
</g>
<g>
	<g>
		<path d="M256,296.864c-80.929,0-146.77-65.739-146.77-146.544c0-80.798,65.84-146.532,146.77-146.532
			S402.771,69.522,402.771,150.32C402.771,231.125,336.929,296.864,256,296.864z M256,26.797
			c-68.242,0-123.761,55.413-123.761,123.523c0,68.117,55.519,123.535,123.761,123.535c68.243,0,123.762-55.418,123.762-123.535
			C379.762,82.21,324.242,26.797,256,26.797z"/>
		<path d="M499.614,508.212H12.386c-6.354,0-11.504-5.15-11.504-11.504c0-60.004,22.446-105.507,66.715-135.243
			c37.74-25.351,89.968-38.205,155.233-38.205h66.341c65.265,0,117.492,12.854,155.231,38.205
			c44.27,29.736,66.716,75.239,66.716,135.243C511.118,503.062,505.968,508.212,499.614,508.212z M24.215,485.204h463.572
			c-2.647-46.174-21.524-81.338-56.213-104.64c-33.878-22.758-81.79-34.296-142.402-34.296H222.83
			c-60.613,0-108.525,11.538-142.403,34.296C45.738,403.866,26.861,439.03,24.215,485.204z"/>
	</g>
</g>
</svg>
