<?xml version="1.0" encoding="utf-8"?>
<!-- Generator: Adobe Illustrator 16.0.0, SVG Export Plug-In . SVG Version: 6.00 Build 0)  -->
<!DOCTYPE svg PUBLIC "-//W3C//DTD SVG 1.1//EN" "http://www.w3.org/Graphics/SVG/1.1/DTD/svg11.dtd">
<svg version="1.1" id="Camada_1" xmlns="http://www.w3.org/2000/svg" xmlns:xlink="http://www.w3.org/1999/xlink" x="0px" y="0px"
	 width="512px" height="512px" viewBox="0 0 512 512" enable-background="new 0 0 512 512" xml:space="preserve">
<g>
	<g>
		<path d="M278.048,382.038l-12.65-2.13c-25.857-4.353-48.569-18.43-63.951-39.637c-15.393-21.222-21.749-47.263-17.898-73.326
			c3.548-24.085,15.701-46.09,34.219-61.957c18.323-15.7,41.586-24.347,65.505-24.347c4.424,0,8.905,0.299,13.312,0.887
			c41.3,5.467,75.095,36.497,84.078,77.211l2.825,12.796l-13.055,1.136c-22.198,1.929-43.468,11.532-59.891,27.042
			c-16.947,16.003-27.622,36.749-30.873,59.999c-0.396,2.979-0.689,6.117-0.885,9.517L278.048,382.038z M283.272,203.635
			c-38.285,0-71.378,28.66-76.977,66.666c-2.968,20.088,1.92,40.142,13.764,56.471c9.381,12.934,22.311,22.417,37.184,27.452
			c4.346-27.237,17.604-52.428,37.512-71.228c16.728-15.794,37.573-26.606,59.787-31.196
			c-10.149-25.328-33.387-43.825-60.987-47.478C290.137,203.865,286.683,203.635,283.272,203.635z"/>
		<path d="M399.446,508.293c-0.004,0-0.004,0-0.006,0c-4.842,0-9.747-0.322-14.579-0.957c-29.626-3.888-55.985-19.189-74.225-43.085
			c-18.537-24.286-26.451-54.398-22.28-84.788c3.735-27.201,17.093-52.062,37.614-70c20.341-17.783,46.27-27.576,73.009-27.576
			c4.872,0,9.806,0.328,14.664,0.976c29.39,3.891,55.624,19.094,73.86,42.808c18.229,23.706,26.33,53.161,22.81,82.94
			C503.584,465.44,455.921,508.293,399.446,508.293z M398.979,304.88c-43.996,0-81.761,33.408-87.843,77.709
			c-3.333,24.28,2.981,48.328,17.778,67.712c14.495,18.993,35.429,31.151,58.939,34.237c3.845,0.506,7.741,0.762,11.586,0.762
			c44.833,0.003,82.681-34.128,88.04-79.391c5.78-48.903-28.7-93.878-76.861-100.254C406.752,305.141,402.839,304.88,398.979,304.88
			z"/>
		<path d="M173.338,271.712l-12.608-2.126c-24.148-4.072-45.289-17.151-59.528-36.829c-14.271-19.722-20.031-43.904-16.222-68.093
			c3.524-22.301,15.056-42.653,32.469-57.314c17.215-14.494,38.99-22.476,61.313-22.476c4.181,0,8.409,0.281,12.568,0.838
			c38.657,5.132,70.061,34.016,78.133,71.871l2.722,12.767l-13.008,1.088c-20.445,1.71-40.097,10.412-55.335,24.5
			c-15.693,14.509-25.672,33.333-28.858,54.439c-0.397,2.75-0.685,5.575-0.867,8.573L173.338,271.712z M178.762,107.867
			c-35.075,0-65.629,25.958-71.07,60.38c-2.856,18.14,1.454,36.265,12.138,51.03c8.294,11.462,19.727,19.942,32.928,24.593
			c4.451-24.81,16.968-47.705,35.476-64.816c15.493-14.324,34.669-24.179,55.074-28.481c-9.287-22.428-30.147-38.769-55.013-42.069
			C185.131,108.081,181.927,107.867,178.762,107.867z"/>
		<path d="M78.698,162.809l-12.438-2.102c-20.645-3.488-38.672-14.621-50.763-31.345C3.356,112.567-1.456,91.984,1.948,71.407
			c3.147-18.953,13.145-36.234,28.152-48.672C44.906,10.465,63.574,3.707,82.668,3.707c3.608,0,7.257,0.243,10.845,0.722
			c33.204,4.428,59.958,29.087,66.571,61.362l2.603,12.704l-12.925,1.062c-16.748,1.375-32.893,8.409-45.457,19.807
			c-12.915,11.713-21.173,26.894-23.88,43.902c-0.334,2.066-0.59,4.334-0.786,6.964L78.698,162.809z M82.668,26.7
			c-28.497,0-53.447,20.835-58.036,48.466c-4.322,26.128,10.149,50.385,33.971,59.701c4.243-20.067,14.87-38.583,30.254-52.535
			c12.735-11.552,28.323-19.649,44.917-23.488c-7.748-16.86-23.975-29.046-43.303-31.623C87.886,26.875,85.262,26.7,82.668,26.7z"/>
	</g>
</g>
</svg>
