<?xml version="1.0" encoding="utf-8"?>
<!-- Generator: Adobe Illustrator 16.0.0, SVG Export Plug-In . SVG Version: 6.00 Build 0)  -->
<!DOCTYPE svg PUBLIC "-//W3C//DTD SVG 1.1//EN" "http://www.w3.org/Graphics/SVG/1.1/DTD/svg11.dtd">
<svg version="1.1" id="Camada_1" xmlns="http://www.w3.org/2000/svg" xmlns:xlink="http://www.w3.org/1999/xlink" x="0px" y="0px"
	 width="512px" height="512px" viewBox="0 0 512 512" enable-background="new 0 0 512 512" xml:space="preserve">
<g>
	<path d="M218.649,67.079c-8.082,0-15.436,3.082-21.262,8.912l-93.806,93.805h-71.69c-8.079,0-15.432,3.082-21.266,8.915
		c-5.828,5.832-8.908,13.184-8.908,21.261v112.057c0,8.078,3.08,15.43,8.91,21.262c5.828,5.83,13.182,8.91,21.264,8.91h71.691
		l93.806,93.807c5.829,5.83,13.182,8.91,21.263,8.91c8.08,0,15.432-3.08,21.266-8.912c5.828-5.832,8.908-13.184,8.908-21.262V97.254
		c0-8.079-3.081-15.431-8.912-21.263C234.082,70.161,226.729,67.079,218.649,67.079z M225.824,414.743
		c0,2.006-0.631,3.455-2.172,4.998c-1.546,1.547-2.995,2.176-5.002,2.176s-3.455-0.629-4.999-2.174L113.11,319.2H31.891
		c-2.008,0-3.456-0.629-4.998-2.172c-1.546-1.545-2.176-2.994-2.176-5V199.972c0-2.006,0.631-3.455,2.173-4.999
		c1.547-1.546,2.995-2.177,5.001-2.177h81.218L213.653,92.252c1.543-1.543,2.99-2.173,4.996-2.173s3.455,0.63,5,2.175
		c1.545,1.546,2.176,2.995,2.176,5V414.743z"/>
	<path d="M337.75,404.175l0.338-0.137c29.25-12.326,53.072-32.275,70.805-59.293c17.709-26.98,26.689-56.84,26.689-88.746
		c0-31.909-8.98-61.767-26.689-88.742c-17.734-27.018-41.557-46.966-70.805-59.293l-0.338-0.136
		c-3.84-1.478-7.781-2.227-11.717-2.227c-8.08,0-15.432,3.082-21.262,8.913c-5.83,5.83-8.912,13.183-8.912,21.263
		c0,11.871,6.262,21.619,17.592,27.429c12.807,6.632,18.254,10.093,20.568,11.828l0.119,0.089
		c12.854,9.38,23.027,21.313,30.234,35.467c7.205,14.152,10.857,29.431,10.857,45.412s-3.652,31.261-10.857,45.411
		c-7.207,14.152-17.379,26.086-30.236,35.471l-0.115,0.086c-2.318,1.738-7.77,5.199-20.531,11.807
		c-11.369,5.832-17.631,15.582-17.631,27.449c0,8.082,3.082,15.436,8.912,21.264c5.832,5.83,13.285,8.91,21.555,8.91
		C330.067,406.399,333.91,405.651,337.75,404.175z M318.86,376.226c0-2.203,0.396-4.557,5.166-7.004
		c11.508-5.957,19.27-10.473,23.725-13.799c15.779-11.529,28.266-26.188,37.119-43.574c8.867-17.414,13.361-36.203,13.361-55.847
		c0-19.643-4.494-38.432-13.361-55.848c-8.854-17.385-21.34-32.042-37.113-43.566c-4.449-3.326-12.215-7.843-23.77-13.826
		c-4.73-2.426-5.127-4.781-5.127-6.984c0-2.007,0.631-3.455,2.176-5s2.992-2.176,4.998-2.176c1.072,0,2.156,0.209,3.312,0.638
		c24.879,10.528,45.174,27.565,60.318,50.64c15.207,23.162,22.918,48.772,22.918,76.12c0,27.346-7.711,52.957-22.918,76.125
		c-15.145,23.076-35.438,40.111-60.32,50.641c-1.135,0.422-2.148,0.635-3.018,0.635c-2.213,0-3.746-0.629-5.293-2.176
		C319.49,379.681,318.86,378.233,318.86,376.226z"/>
	<path d="M308.799,335.099c15.631-6.34,28.355-16.953,37.824-31.549c9.461-14.576,14.256-30.574,14.256-47.551
		c0-16.961-4.789-32.997-14.232-47.66c-9.49-14.736-22.246-25.322-37.924-31.472c-3.426-1.593-7.416-2.399-11.869-2.399
		c-8.023,0-15.34,2.994-21.154,8.659c-5.902,5.746-9.021,13.187-9.021,21.519c0.002,6.72,2.127,12.837,6.139,17.684
		c3.119,3.774,6.914,7.056,11.281,9.753c3.025,1.868,6.104,3.951,9.154,6.195c1.861,1.368,3.57,3.525,5.076,6.411
		c1.457,2.795,2.195,6.6,2.195,11.312c0,4.714-0.738,8.519-2.197,11.314c-1.504,2.885-3.211,5.041-5.08,6.414
		c-3.035,2.232-6.113,4.314-9.152,6.191c-4.355,2.691-8.148,5.971-11.27,9.742c-4.021,4.854-6.146,10.973-6.146,17.695
		c0,8.328,3.119,15.77,9.02,21.516c5.818,5.666,13.133,8.66,21.156,8.66C301.344,337.534,305.36,336.716,308.799,335.099z
		 M289.678,307.358c0-1.748,0.434-2.508,0.861-3.025c1.547-1.869,3.395-3.455,5.643-4.844c3.562-2.201,7.16-4.635,10.689-7.23
		c4.721-3.467,8.707-8.283,11.848-14.307c3.188-6.109,4.805-13.495,4.805-21.947c0.002-8.455-1.615-15.842-4.805-21.957
		c-3.145-6.026-7.131-10.84-11.844-14.302c-3.545-2.606-7.143-5.041-10.691-7.232c-2.225-1.374-4.121-3.002-5.645-4.845
		c-0.426-0.514-0.861-1.276-0.861-3.026c0-2.148,0.598-3.608,2.066-5.038c1.559-1.518,3.039-2.137,5.109-2.137
		c1.568,0,2.158,0.248,2.158,0.248l0.49,0.244l0.508,0.196c11.391,4.394,20.32,11.797,27.299,22.636
		c7.113,11.043,10.57,22.56,10.57,35.207c0,12.633-3.451,24.092-10.549,35.031c-7.008,10.801-15.988,18.281-27.453,22.867
		l-0.857,0.385c-0.006,0.002-0.592,0.252-2.166,0.252c-2.07,0-3.551-0.619-5.109-2.139
		C290.276,310.966,289.678,309.507,289.678,307.358z"/>
	<path d="M471.323,126.381c-25.846-39.177-60.727-68.433-103.676-86.955l-0.428-0.174c-3.84-1.477-7.781-2.226-11.713-2.226
		c-8.08,0-15.434,3.082-21.264,8.913s-8.912,13.184-8.912,21.263c0,7.789,2.955,18.817,17.039,27.122l0.145,0.084
		c1.799,1.025,4.357,2.229,7.814,3.678c3.51,1.473,4.881,2.199,5.307,2.442l0.217,0.121c8.451,4.594,16.064,9.324,22.631,14.062
		c22.338,16.538,40.021,37.452,52.561,62.16c12.533,24.709,18.889,51.332,18.889,79.131c0,27.804-6.355,54.427-18.889,79.13
		s-30.219,45.617-52.561,62.158c-6.555,4.732-14.17,9.465-22.633,14.064l-0.215,0.121c-0.422,0.242-1.787,0.965-5.303,2.441
		c-3.527,1.479-6.012,2.646-7.82,3.68l-0.145,0.082c-14.082,8.307-17.037,19.334-17.037,27.123c0,8.078,3.082,15.432,8.912,21.262
		s13.182,8.91,21.264,8.91c3.932,0,7.871-0.748,11.711-2.223l0.43-0.176c42.951-18.523,77.832-47.779,103.678-86.953
		c25.852-39.186,38.959-82.797,38.959-129.622C510.285,209.171,497.176,165.561,471.323,126.381z M452.125,372.956
		c-23.285,35.297-54.688,61.67-93.342,78.395c-1.145,0.42-2.219,0.623-3.277,0.623c-2.008,0-3.455-0.629-5-2.174
		s-2.176-2.994-2.176-4.998c0-1.172,0-3.91,5.643-7.264c0.492-0.277,1.902-1.006,5.258-2.414c3.467-1.455,5.918-2.605,7.699-3.613
		c9.307-5.064,17.742-10.316,25.076-15.615l0.105-0.076c25.266-18.695,45.266-42.34,59.443-70.281
		c14.184-27.959,21.377-58.082,21.377-89.536c0-31.448-7.191-61.572-21.377-89.538c-14.182-27.944-34.182-51.59-59.443-70.28
		l-0.107-0.077c-7.344-5.304-15.779-10.557-25.074-15.613c-1.791-1.013-4.244-2.164-7.709-3.618
		c-3.322-1.392-4.744-2.128-5.248-2.409c-5.643-3.354-5.643-6.092-5.643-7.264c0-2.005,0.631-3.454,2.176-5
		c1.545-1.545,2.994-2.176,5-2.176c1.057,0,2.131,0.204,3.273,0.624c38.654,16.723,70.059,43.098,93.346,78.396
		c23.33,35.357,35.16,74.705,35.158,116.952C487.283,298.243,475.455,337.595,452.125,372.956z"/>
</g>
</svg>
