<?xml version="1.0" encoding="utf-8"?>
<!-- Generator: Adobe Illustrator 16.0.0, SVG Export Plug-In . SVG Version: 6.00 Build 0)  -->
<!DOCTYPE svg PUBLIC "-//W3C//DTD SVG 1.1//EN" "http://www.w3.org/Graphics/SVG/1.1/DTD/svg11.dtd">
<svg version="1.1" id="Camada_1" xmlns="http://www.w3.org/2000/svg" xmlns:xlink="http://www.w3.org/1999/xlink" x="0px" y="0px"
	 width="510.236px" height="510.236px" viewBox="0 0 510.236 510.236" enable-background="new 0 0 510.236 510.236"
	 xml:space="preserve">
<path d="M493.863,489.325L335.04,330.499c1.411-1.329,2.812-2.675,4.188-4.052c36.089-36.088,55.964-84.117,55.964-135.241
	s-19.875-99.154-55.964-135.243C303.14,19.875,255.111,0,203.988,0c-51.124,0-99.154,19.875-135.242,55.964
	c-36.087,36.088-55.961,84.119-55.961,135.243c0,51.124,19.874,99.153,55.961,135.241c36.088,36.088,84.117,55.963,135.242,55.963
	c40.85,0,79.717-12.701,112.103-36.213L476.54,506.648c2.393,2.393,5.526,3.588,8.662,3.588c3.134,0,6.27-1.196,8.661-3.588
	C498.647,501.864,498.647,494.108,493.863,489.325z M86.07,309.124c-31.46-31.461-48.786-73.337-48.786-117.917
	S54.61,104.749,86.07,73.287s73.338-48.788,117.918-48.788c44.579,0,86.456,17.327,117.916,48.788
	c31.462,31.462,48.788,73.34,48.788,117.919s-17.326,86.457-48.787,117.917s-73.337,48.787-117.917,48.787
	C159.408,357.911,117.531,340.585,86.07,309.124z"/>
</svg>
