<?xml version="1.0" encoding="utf-8"?>
<!-- Generator: Adobe Illustrator 16.0.0, SVG Export Plug-In . SVG Version: 6.00 Build 0)  -->
<!DOCTYPE svg PUBLIC "-//W3C//DTD SVG 1.1//EN" "http://www.w3.org/Graphics/SVG/1.1/DTD/svg11.dtd">
<svg version="1.1" id="Camada_1" xmlns="http://www.w3.org/2000/svg" xmlns:xlink="http://www.w3.org/1999/xlink" x="0px" y="0px"
	 width="510.236px" height="510.236px" viewBox="0 0 510.236 510.236" enable-background="new 0 0 510.236 510.236"
	 xml:space="preserve">
<g id="icomoon-ignore">
</g>
<path d="M203.383,498.867l-9.549-12.07C130.7,406.994,11.317,256.121,5.303,248.632c-5.371-5.851-6.808-14.365-3.642-21.866
	c3.134-7.427,10.192-12.227,17.98-12.227c3.764,0,7.475,1.059,11.036,3.148l158.373,82.259L474.221,19.904
	c4.034-5.369,10.239-8.535,16.859-8.535c6.869,0,13.02,3.317,16.454,8.874c3.539,5.726,3.604,12.94,0.177,19.795l-0.306,0.61
	l-0.377,0.568L203.383,498.867z M28.173,241.546c12.977,16.321,52.35,66.039,173.624,219.329L472.473,52.914L193.135,327.228
	L28.173,241.546z"/>
</svg>
