<?xml version="1.0" encoding="utf-8"?>
<!-- Generator: Adobe Illustrator 16.0.0, SVG Export Plug-In . SVG Version: 6.00 Build 0)  -->
<!DOCTYPE svg PUBLIC "-//W3C//DTD SVG 1.1//EN" "http://www.w3.org/Graphics/SVG/1.1/DTD/svg11.dtd">
<svg version="1.1" id="Camada_1" xmlns="http://www.w3.org/2000/svg" xmlns:xlink="http://www.w3.org/1999/xlink" x="0px" y="0px"
	 width="510.236px" height="510.236px" viewBox="0 0 510.236 510.236" enable-background="new 0 0 510.236 510.236"
	 xml:space="preserve">
<g id="icomoon-ignore">
</g>
<path d="M118.232,509.475H0.764V392.006L310.883,81.888L428.35,199.354L118.232,509.475z M23.764,486.475h84.94l287.119-287.12
	l-84.94-84.94L23.764,401.533V486.475z M440.695,187.012L323.228,69.543l57.519-57.52c7.262-7.262,16.93-11.262,27.225-11.262
	c10.294,0,19.963,4,27.226,11.261l63.017,63.017c15.011,15.013,15.011,39.439,0,54.451L440.695,187.012z M355.755,69.543
	l84.94,84.941l41.255-41.256c6.044-6.044,6.044-15.88,0-21.925l-63.016-63.016c-2.918-2.918-6.812-4.525-10.963-4.525
	c-4.15,0-8.043,1.607-10.96,4.525L355.755,69.543z"/>
</svg>
