<?xml version="1.0" encoding="utf-8"?>
<!-- Generator: Adobe Illustrator 16.0.0, SVG Export Plug-In . SVG Version: 6.00 Build 0)  -->
<!DOCTYPE svg PUBLIC "-//W3C//DTD SVG 1.1//EN" "http://www.w3.org/Graphics/SVG/1.1/DTD/svg11.dtd">
<svg version="1.1" id="Camada_1" xmlns="http://www.w3.org/2000/svg" xmlns:xlink="http://www.w3.org/1999/xlink" x="0px" y="0px"
	 width="512px" height="512px" viewBox="0 0 512 512" enable-background="new 0 0 512 512" xml:space="preserve">
<g>
	<path d="M319.122,389.288c-6.049,0-10.952,4.903-10.952,10.951V464.8H22.785V138.406h183.33c6.048,0,10.952-4.903,10.952-10.951
		c0-6.049-4.903-10.952-10.952-10.952H11.834c-6.048,0-10.952,4.903-10.952,10.952v348.296c0,6.049,4.903,10.952,10.952,10.952
		h307.289c6.049,0,10.952-4.903,10.952-10.952v-75.512C330.074,394.191,325.171,389.288,319.122,389.288z"/>
	<path d="M485.409,51.071c-16.598-16.62-38.685-25.774-62.191-25.774c-23.506,0-45.592,9.154-62.205,25.79L182.522,230.538
		l-0.342,124.673h123.448l179.774-179.776C519.689,141.146,519.69,85.355,485.409,51.071z M469.914,159.947l-173.359,173.36h-92.411
		l0.257-93.707L376.528,66.549c12.459-12.477,29.041-19.348,46.69-19.348c17.651,0,34.233,6.871,46.698,19.353
		C495.662,92.303,495.661,134.198,469.914,159.947z"/>
	<path d="M257.995,228.781c-12.901,0-25.149,5.144-34.489,14.483l-3.208,3.208v70.238h68.974l3.208-3.206
		c9.346-9.341,14.491-21.814,14.489-35.123c-0.002-13.305-5.146-25.776-14.487-35.117
		C283.144,233.925,270.896,228.781,257.995,228.781z M279.749,294.808h-37.547v-38.826c4.636-3.439,10.116-5.297,15.793-5.297
		c7.049,0,13.796,2.865,18.999,8.068c5.205,5.204,8.071,12.176,8.072,19.631C285.068,284.398,283.201,290.098,279.749,294.808z"/>
	<path d="M457.469,78.286c-9.341-9.34-21.757-14.484-34.964-14.484s-25.623,5.145-34.964,14.484l-7.743,7.744l69.927,69.93
		l7.744-7.745C476.745,128.936,476.745,97.565,457.469,78.286z M448.117,123.376l-35.75-35.752c3.184-1.26,6.61-1.918,10.138-1.918
		c7.356,0,14.272,2.865,19.476,8.067C449.968,101.763,452.014,113.479,448.117,123.376z"/>
	<polygon points="42.562,162.024 42.562,196.562 154.363,196.901 190.233,162.024 	"/>
	<polygon points="143.889,245.471 45.482,245.648 45.482,277.215 143.889,277.85 	"/>
	<polygon points="45.482,352.455 143.889,353.09 143.889,320.711 45.482,320.889 	"/>
	<polygon points="45.482,428.648 287.372,429.283 287.372,396.904 45.482,397.082 	"/>
</g>
</svg>
