<?xml version="1.0" encoding="utf-8"?>
<!-- Generator: Adobe Illustrator 16.0.0, SVG Export Plug-In . SVG Version: 6.00 Build 0)  -->
<!DOCTYPE svg PUBLIC "-//W3C//DTD SVG 1.1//EN" "http://www.w3.org/Graphics/SVG/1.1/DTD/svg11.dtd">
<svg version="1.1" id="Camada_1" xmlns="http://www.w3.org/2000/svg" xmlns:xlink="http://www.w3.org/1999/xlink" x="0px" y="0px"
	 width="512px" height="512px" viewBox="0 0 512 512" enable-background="new 0 0 512 512" xml:space="preserve">
<path d="M476.357,388.97L327.506,140.947V59.088h3.716c14.243,0,26.735-13.429,26.735-28.737c0-14.039-11.433-29.739-26.735-29.739
	H178.967c-15.301,0-26.733,15.701-26.733,29.739c0,15.308,12.492,28.737,26.733,28.737h3.716v81.859L33.835,388.969
	c-18.897,31.495-21.961,61.81-8.627,85.36c13.333,23.55,40.903,36.52,77.631,36.52h304.507c36.729,0,64.299-12.97,77.634-36.52
	C498.315,450.779,495.252,420.464,476.357,388.97z M205.704,147.325V36.068h-26.737c-1.137,0-3.713-2.93-3.713-5.716
	c0-2.975,2.553-6.323,3.807-6.718h152.067c1.254,0.395,3.809,3.743,3.809,6.718c0,2.787-2.578,5.716-3.715,5.716h-26.736v111.257
	l94.701,157.798H126.173h-15.169L205.704,147.325z M464.948,462.987c-9.069,16.019-29.526,24.841-57.601,24.841H102.84
	c-28.074,0-48.529-8.822-57.599-24.841c-9.07-16.02-6.11-38.101,8.333-62.173l43.613-72.671h315.816l43.612,72.669
	C471.059,424.887,474.018,446.968,464.948,462.987z"/>
</svg>
