<?xml version="1.0" encoding="utf-8"?>
<!-- Generator: Adobe Illustrator 16.0.0, SVG Export Plug-In . SVG Version: 6.00 Build 0)  -->
<!DOCTYPE svg PUBLIC "-//W3C//DTD SVG 1.1//EN" "http://www.w3.org/Graphics/SVG/1.1/DTD/svg11.dtd">
<svg version="1.1" id="Camada_1" xmlns="http://www.w3.org/2000/svg" xmlns:xlink="http://www.w3.org/1999/xlink" x="0px" y="0px"
	 width="510.236px" height="510.236px" viewBox="0 0 510.236 510.236" enable-background="new 0 0 510.236 510.236"
	 xml:space="preserve">
<g id="icomoon-ignore">
</g>
<path d="M274.334,510.236V305.058h85.119l4.741-38.488h-89.86v-41.711c0-23.104,18.732-41.9,41.757-41.9h49.579V144.66h-49.579
	c-44.214,0-80.187,35.977-80.187,80.198v41.711h-45.671v38.488h45.671v205.176l-12.715-1.579C95.951,492.849,0,383.924,0,255.289
	c0-68.211,26.514-132.322,74.656-180.523C122.811,26.552,186.868,0,255.026,0c68.166,0,132.25,26.551,180.456,74.762
	c48.206,48.214,74.754,112.326,74.754,180.527c0,128.611-95.949,237.534-223.189,253.364L274.334,510.236z M255.026,22.562
	c-62.096,0-120.459,24.194-164.336,68.125C46.8,134.63,22.629,193.087,22.629,255.289c0,112.953,81.087,209.227,190.646,229.039
	V327.62h-45.669v-83.612h45.669v-19.149c0-56.662,46.123-102.76,102.815-102.76h72.205v83.422h-72.205
	c-10.55,0-19.129,8.675-19.129,19.338v19.149h92.811l-10.299,83.612h-82.512v156.705c109.549-19.84,190.646-116.111,190.646-229.036
	c0-62.188-24.203-120.643-68.153-164.598C375.529,46.757,317.134,22.562,255.026,22.562z"/>
</svg>
