<?xml version="1.0" encoding="utf-8"?>
<!-- Generator: Adobe Illustrator 16.0.0, SVG Export Plug-In . SVG Version: 6.00 Build 0)  -->
<!DOCTYPE svg PUBLIC "-//W3C//DTD SVG 1.1//EN" "http://www.w3.org/Graphics/SVG/1.1/DTD/svg11.dtd">
<svg version="1.1" id="Camada_1" xmlns="http://www.w3.org/2000/svg" xmlns:xlink="http://www.w3.org/1999/xlink" x="0px" y="0px"
	 width="512px" height="512px" viewBox="0 0 512 512" enable-background="new 0 0 512 512" xml:space="preserve">
<path d="M429.326,343.91c-4.767,0-9.379,0.654-13.765,1.854L300.746,141.74C312.621,130.122,320,113.926,320,96
	c0-34.409-27.155-62.464-61.203-63.929c-0.9-0.046-1.806-0.071-2.717-0.071c-0.015,0-0.026,0.001-0.04,0.001
	c-0.015,0-0.026-0.001-0.04-0.001c-35.347,0-64,28.653-64,64c0,18.132,7.553,34.491,19.669,46.136L96.987,345.921
	c-4.549-1.3-9.348-2.011-14.313-2.011c-28.731,0-52.022,23.292-52.022,52.022s23.291,52.021,52.022,52.021
	c28.729,0,52.021-23.291,52.021-52.021c0-4.606-0.604-9.071-1.729-13.325l68.318-29.397C212.509,371.67,232.814,384,256,384
	c23.122,0,43.376-12.264,54.622-30.639l68.362,29.416c-1.095,4.203-1.682,8.609-1.682,13.155c0,28.73,23.292,52.021,52.021,52.021
	c28.731,0,52.022-23.291,52.022-52.021C481.349,367.202,458.06,343.91,429.326,343.91z M125.814,366.854
	c-3.562-5.274-8.076-9.852-13.279-13.508l113.109-200.995c6.632,3.581,13.973,6.009,21.751,7.056v97.185
	C216.121,260.798,192,287.573,192,320c0,6.013,0.847,11.825,2.396,17.343L125.814,366.854z M386.089,367.005l-68.535-29.489
	C319.135,331.946,320,326.076,320,320c0-32.377-24.046-59.121-55.25-63.391v-97.22c7.916-1.083,15.373-3.604,22.092-7.306
	l113.08,200.938C394.473,356.764,389.771,361.512,386.089,367.005z"/>
</svg>
