<?xml version="1.0" encoding="utf-8"?>
<!-- Generator: Adobe Illustrator 16.0.0, SVG Export Plug-In . SVG Version: 6.00 Build 0)  -->
<!DOCTYPE svg PUBLIC "-//W3C//DTD SVG 1.1//EN" "http://www.w3.org/Graphics/SVG/1.1/DTD/svg11.dtd">
<svg version="1.1" id="Camada_1" xmlns="http://www.w3.org/2000/svg" xmlns:xlink="http://www.w3.org/1999/xlink" x="0px" y="0px"
	 width="510.236px" height="510.236px" viewBox="0.882 0.882 510.236 510.236" enable-background="new 0.882 0.882 510.236 510.236"
	 xml:space="preserve">
<g id="icomoon-ignore">
</g>
<g>
	<path d="M84.94,475.134c-2.912,0-5.706-1.155-7.77-3.212c-2.07-2.064-3.234-4.868-3.234-7.792V312.029h-62.05
		c-6.077,0-11.004-4.927-11.004-11.004v-24.776c0-3.047,1.263-5.958,3.489-8.038l244.291-228.38
		c4.021-3.76,10.204-3.968,14.471-0.488l100.848,82.27V83.311c0-2.941,1.178-5.762,3.271-7.829c2.093-2.067,4.926-3.212,7.869-3.174
		l72.331,0.9c6.01,0.075,10.849,4.96,10.866,10.972l0.359,124.289l49.939,60.796c1.617,1.969,2.501,4.438,2.501,6.984v24.776
		c0,6.077-4.927,11.004-11.004,11.004h-59.879v151.738c0,6.077-4.927,11.004-11.004,11.004H301.931
		c-6.053,0-10.97-4.889-11.004-10.941l-0.662-115.637h-67.743v115.574c0,6.065-4.907,10.986-10.973,11.004l-126.578,0.362
		C84.961,475.134,84.95,475.134,84.94,475.134z M22.89,290.021h62.05c6.077,0,11.004,4.926,11.004,11.004v152.068l104.57-0.299
		V337.189c0-6.077,4.927-11.004,11.004-11.004h89.688c6.053,0,10.97,4.889,11.004,10.941l0.662,115.637h105.355V301.025
		c0-6.078,4.926-11.004,11.004-11.004h59.879v-9.833l-49.929-60.781c-1.61-1.96-2.493-4.416-2.501-6.953l-0.338-117.375
		l-50.354-0.626v50.337c0,4.249-2.446,8.118-6.284,9.94c-3.838,1.821-8.382,1.272-11.676-1.413L256.669,62.473L22.89,281.026
		V290.021z"/>
</g>
</svg>
