<?xml version="1.0" encoding="utf-8"?>
<!-- Generator: Adobe Illustrator 16.0.0, SVG Export Plug-In . SVG Version: 6.00 Build 0)  -->
<!DOCTYPE svg PUBLIC "-//W3C//DTD SVG 1.1//EN" "http://www.w3.org/Graphics/SVG/1.1/DTD/svg11.dtd">
<svg version="1.1" id="Camada_1" xmlns="http://www.w3.org/2000/svg" xmlns:xlink="http://www.w3.org/1999/xlink" x="0px" y="0px"
	 width="512px" height="512px" viewBox="0 0 512 512" enable-background="new 0 0 512 512" xml:space="preserve">
<g>
	<path d="M0.882,77.132v357.736h510.236V77.132H0.882z M38.244,411.859l167.062-146.812l109.735,93.651l76.978-60.283L477.1,411.859
		H38.244z M488.11,388.188l-91.78-122.374l-80.663,63.169l-110.581-94.375L23.891,393.842V100.141H488.11V388.188z"/>
	<path d="M113.948,253.26c35.13,0,63.711-28.58,63.711-63.708c0-17.843-7.063-34.274-19.888-46.266
		c-11.854-11.084-27.827-17.441-43.823-17.441c-35.128,0-63.708,28.579-63.708,63.708C50.241,224.68,78.82,253.26,113.948,253.26z
		 M113.948,148.853c19.575,0,40.702,15.56,40.702,40.698c0,22.442-18.259,40.699-40.702,40.699
		c-22.441,0-40.699-18.257-40.699-40.699C73.25,167.11,91.507,148.853,113.948,148.853z"/>
</g>
</svg>
