<?xml version="1.0" encoding="utf-8"?>
<!-- Generator: Adobe Illustrator 16.0.0, SVG Export Plug-In . SVG Version: 6.00 Build 0)  -->
<!DOCTYPE svg PUBLIC "-//W3C//DTD SVG 1.1//EN" "http://www.w3.org/Graphics/SVG/1.1/DTD/svg11.dtd">
<svg version="1.1" id="Camada_1" xmlns="http://www.w3.org/2000/svg" xmlns:xlink="http://www.w3.org/1999/xlink" x="0px" y="0px"
	 width="510.236px" height="510.236px" viewBox="0 0 510.236 510.236" enable-background="new 0 0 510.236 510.236"
	 xml:space="preserve">
<g id="icomoon-ignore">
</g>
<g>
	<path d="M428.224,82.013C381.986,35.774,320.509,10.31,255.118,10.31S128.251,35.774,82.012,82.013S10.309,189.728,10.309,255.118
		s25.465,126.868,71.703,173.106c46.238,46.237,107.715,71.702,173.105,71.702s126.868-25.465,173.106-71.702
		c46.237-46.238,71.702-107.716,71.702-173.106S474.462,128.251,428.224,82.013z M411.961,411.961
		c-41.895,41.894-97.595,64.966-156.843,64.966c-59.247,0-114.948-23.072-156.843-64.966
		c-41.894-41.895-64.966-97.596-64.966-156.843S56.382,140.17,98.275,98.275C140.17,56.382,195.871,33.31,255.118,33.31
		s114.948,23.072,156.843,64.966c41.894,41.895,64.966,97.596,64.966,156.843C476.927,314.366,453.854,370.066,411.961,411.961z"/>
	<polygon points="185.12,132.009 309.458,256.347 185.575,380.228 200.404,395.057 339.116,256.347 199.949,117.18 	"/>
</g>
</svg>
