<?xml version="1.0" encoding="utf-8"?>
<!-- Generator: Adobe Illustrator 16.0.0, SVG Export Plug-In . SVG Version: 6.00 Build 0)  -->
<!DOCTYPE svg PUBLIC "-//W3C//DTD SVG 1.1//EN" "http://www.w3.org/Graphics/SVG/1.1/DTD/svg11.dtd">
<svg version="1.1" id="Camada_1" xmlns="http://www.w3.org/2000/svg" xmlns:xlink="http://www.w3.org/1999/xlink" x="0px" y="0px"
	 width="510.236px" height="510.236px" viewBox="0 0 510.236 510.236" enable-background="new 0 0 510.236 510.236"
	 xml:space="preserve">
<g id="icomoon-ignore">
</g>
<g>
	<path d="M77.845,468.565c0,22.978,18.693,41.671,41.669,41.671h271.209c22.977,0,41.67-18.693,41.67-41.671V174.689H77.845V468.565
		z M100.915,197.758h308.409v270.807c0,10.257-8.344,18.602-18.601,18.602H119.514c-10.256,0-18.599-8.345-18.599-18.602V197.758z"
		/>
	<path d="M428.391,60.27H341.99V34.136C341.99,15.313,326.677,0,307.853,0H202.384c-18.822,0-34.136,15.313-34.136,34.136v26.132
		H81.845c-18.822,0-34.136,15.312-34.136,34.135v49.203h414.816V94.405C462.526,75.582,447.214,60.27,428.391,60.27z
		 M439.457,120.537H70.78V94.404c0-6.102,4.964-11.066,11.066-11.066h109.472V34.136c0-6.103,4.964-11.067,11.066-11.067h105.469
		c6.103,0,11.067,4.964,11.067,11.067v49.203h109.471c6.101,0,11.065,4.964,11.065,11.066V120.537z"/>
	<rect x="318.809" y="230.031" width="40.121" height="219.662"/>
	<rect x="238.56" y="230.031" width="40.121" height="219.662"/>
	<rect x="158.311" y="230.031" width="40.121" height="219.662"/>
</g>
</svg>
