<?xml version="1.0" encoding="utf-8"?>
<!-- Generator: Adobe Illustrator 16.0.0, SVG Export Plug-In . SVG Version: 6.00 Build 0)  -->
<!DOCTYPE svg PUBLIC "-//W3C//DTD SVG 1.1//EN" "http://www.w3.org/Graphics/SVG/1.1/DTD/svg11.dtd">
<svg version="1.1" id="Camada_1" xmlns="http://www.w3.org/2000/svg" xmlns:xlink="http://www.w3.org/1999/xlink" x="0px" y="0px"
	 width="510.236px" height="510.236px" viewBox="0 0 510.236 510.236" enable-background="new 0 0 510.236 510.236"
	 xml:space="preserve">
<g>
	<path d="M179.48,268.683c55.352,0,100.384-46.903,100.384-104.553c0-57.647-45.033-104.546-100.384-104.546
		c-55.353,0-100.383,46.899-100.383,104.546C79.096,221.78,124.127,268.683,179.48,268.683z M179.48,82.223
		c42.868,0,77.744,36.743,77.744,81.907c0,45.167-34.876,81.913-77.744,81.913c-42.869,0-77.744-36.746-77.744-81.913
		C101.736,118.966,136.611,82.223,179.48,82.223z"/>
	<path d="M66.365,329.772c21.306-15.021,52.884-22.961,91.324-22.961h43.574c13.233,0,24.241,0.904,36.804,3.025
		c6.166,1.039,12.006-3.115,13.046-9.279s-3.115-12.006-9.28-13.047c-13.689-2.309-26.202-3.34-40.57-3.34h-43.574
		c-43.752,0-78.867,9.117-104.369,27.098c-30.088,21.213-45.344,53.52-45.344,96.027c0,6.252,5.069,11.32,11.32,11.32h156.637
		c6.251,0,11.32-5.068,11.32-11.32s-5.069-11.32-11.32-11.32H31.066C33.451,366.864,45.296,344.626,66.365,329.772z"/>
	<path d="M494.518,207.596l-35.249-35.248c-5.006-5-11.658-7.753-18.734-7.753s-13.729,2.753-18.719,7.735l-27.703,27.554
		c-0.383,0.38-0.735,0.785-1.056,1.211L219.529,374.622c-2.123,2.123-3.315,5.002-3.315,8.004v56.707
		c0,6.252,5.068,11.32,11.319,11.32h56.71c3.001,0,5.88-1.193,8.004-3.316l173.515-173.516c0.43-0.324,0.838-0.678,1.222-1.064
		l27.536-27.692C504.841,234.74,504.842,217.934,494.518,207.596z M279.554,428.013h-40.701v-40.697l163.318-163.319l40.698,40.7
		L279.554,428.013z M478.488,229.081l-16.954,17.049l-40.797-40.795l17.061-16.968c0.987-0.984,2.139-1.131,2.737-1.131
		c0.598,0,1.749,0.147,2.729,1.125l35.239,35.239C480.009,225.106,480.01,227.557,478.488,229.081z"/>
</g>
</svg>
