<?xml version="1.0" encoding="utf-8"?>
<!-- Generator: Adobe Illustrator 16.0.0, SVG Export Plug-In . SVG Version: 6.00 Build 0)  -->
<!DOCTYPE svg PUBLIC "-//W3C//DTD SVG 1.1//EN" "http://www.w3.org/Graphics/SVG/1.1/DTD/svg11.dtd">
<svg version="1.1" id="Camada_1" xmlns="http://www.w3.org/2000/svg" xmlns:xlink="http://www.w3.org/1999/xlink" x="0px" y="0px"
	 width="510.236px" height="510.236px" viewBox="0.882 0.882 510.236 510.236" enable-background="new 0.882 0.882 510.236 510.236"
	 xml:space="preserve">
<g id="icomoon-ignore">
</g>
<g>
	<path d="M255.995,288.456c-76.478,0-138.697-64.443-138.697-143.653c0-79.358,62.219-143.921,138.697-143.921
		c76.479,0,138.698,64.562,138.698,143.921C394.694,224.013,332.474,288.456,255.995,288.456z M255.995,22.634
		c-64.484,0-116.945,54.805-116.945,122.169c0,67.216,52.461,121.901,116.945,121.901c64.484,0,116.946-54.686,116.946-121.901
		C372.942,77.438,320.48,22.634,255.995,22.634z"/>
	<path d="M72.273,511.118c-29,0-40.37-11.562-44.567-18.454c-6.575-10.796-5.645-24.523,2.763-40.801
		c34.144-66.355,78.127-112.703,130.722-137.738c2.855-1.358,6.159-1.406,9.053-0.136c2.894,1.272,5.091,3.741,6.019,6.764
		c2.165,7.053,10.662,21.729,21.645,37.39c6.194,8.833,11.698,15.871,15.905,20.812c3.085-4.818,7.414-10.179,13.108-16.294
		c1.686-1.81,3.363-3.544,4.97-5.163c-21.535-12.291-34.231-28.4-41.388-40.755c-1.686-2.91-1.931-6.437-0.663-9.551
		c1.268-3.116,3.905-5.47,7.144-6.376c19.823-5.545,40.775-8.355,62.274-8.355c19.228,0,38.169,2.354,56.298,6.996
		c3.271,0.838,5.967,3.146,7.298,6.249s1.144,6.648-0.504,9.595c-7.2,12.879-20.091,29.644-42.219,42.227
		c1.598,1.61,3.267,3.335,4.94,5.134c5.722,6.145,10.064,11.525,13.152,16.355c13.068-15.499,35.116-47.839,37.673-59.272
		c0.718-3.214,2.855-5.931,5.813-7.386c2.956-1.453,6.415-1.488,9.399-0.096c46.42,21.662,86.805,60.808,123.462,119.675
		c14.402,23.077,17.751,42.22,9.945,56.886c-4.777,8.979-13.623,15.676-25.578,19.367c-8.144,2.515-15.023,2.817-15.781,2.844
		c-0.125,0.005-0.251,0.007-0.376,0.007H75.775C75.166,511.07,73.937,511.118,72.273,511.118z M160.468,338.912
		c-43.802,23.958-80.991,65.252-110.665,122.919c-2.646,5.122-6.609,14.445-3.519,19.52c2.92,4.795,13.364,8.016,25.989,8.016
		c1.56,0,2.51-0.057,2.52-0.058c0.22-0.013,0.466-0.021,0.686-0.021h367.029c1.471-0.1,17.934-1.432,22.831-10.729
		c3.745-7.111,0.468-19.58-9.227-35.114c-31.543-50.653-65.606-85.531-103.837-106.25c-6.342,13.008-16.697,28.166-21.847,35.431
		c-24.944,35.185-31.655,35.185-36.097,35.186c-6.582,0-11.672-5.131-11.908-11.968c-0.778-4.832-13.084-19.36-26.427-31.342
		c-13.341,11.993-25.647,26.52-26.427,31.338c-0.203,6.794-5.303,11.959-11.901,11.963c-0.037,0-0.074,0-0.111,0
		c-4.341,0-10.989-0.279-34.927-33.601C178.639,368.645,167.52,352.775,160.468,338.912z M218,318.162
		c7.946,9.431,19.713,19.368,36.879,26.365c0.385,0.157,0.757,0.334,1.117,0.531c0.371-0.202,0.755-0.385,1.151-0.545
		c17.651-7.126,29.637-17.455,37.662-27.273c-11.61-2.013-23.513-3.028-35.552-3.028C245.158,314.212,231.339,315.538,218,318.162z
		 M256.645,450.256c-15.134,0-27.446-12.544-27.446-27.964c0-15.345,12.312-27.829,27.446-27.829
		c15.136,0,27.449,12.484,27.449,27.829C284.094,437.712,271.781,450.256,256.645,450.256z M256.645,416.215
		c-3.14,0-5.694,2.726-5.694,6.077c0,3.367,2.607,6.212,5.694,6.212c3.088,0,5.697-2.845,5.697-6.212
		C262.342,418.94,259.785,416.215,256.645,416.215z"/>
</g>
</svg>
