<?xml version="1.0" encoding="utf-8"?>
<!-- Generator: Adobe Illustrator 16.0.0, SVG Export Plug-In . SVG Version: 6.00 Build 0)  -->
<!DOCTYPE svg PUBLIC "-//W3C//DTD SVG 1.1//EN" "http://www.w3.org/Graphics/SVG/1.1/DTD/svg11.dtd">
<svg version="1.1" id="Camada_1" xmlns="http://www.w3.org/2000/svg" xmlns:xlink="http://www.w3.org/1999/xlink" x="0px" y="0px"
	 width="510.236px" height="510.236px" viewBox="0 0 510.236 510.236" enable-background="new 0 0 510.236 510.236"
	 xml:space="preserve">
<g id="icomoon-ignore">
</g>
<g>
	<path d="M242.559,254.647h17.567c2.662,0,4.821-2.158,4.82-4.82V5.583c0-2.661-2.158-4.82-4.82-4.82h-17.567
		c-2.662,0-4.82,2.158-4.82,4.82v244.244C237.739,252.489,239.897,254.647,242.559,254.647z"/>
	<path d="M429.985,150.681c-28.981-38.061-70.108-66.376-115.802-79.728c-1.457-0.426-3.029-0.141-4.244,0.77
		c-1.214,0.91-1.929,2.339-1.929,3.857v18.614c0,2.097,1.355,3.954,3.353,4.592c39.465,12.615,73.453,36.968,98.289,70.425
		c25.34,34.137,38.735,74.72,38.735,117.362c0,52.669-20.486,102.162-57.684,139.358c-37.198,37.201-86.691,57.688-139.363,57.688
		c-52.671,0-102.163-20.487-139.361-57.688c-37.197-37.196-57.684-86.689-57.684-139.358c0-42.642,13.395-83.225,38.735-117.362
		c24.836-33.457,58.824-57.81,98.289-70.425c1.998-0.638,3.353-2.495,3.353-4.592V75.579c0-1.518-0.715-2.947-1.929-3.857
		c-1.214-0.91-2.786-1.196-4.243-0.77c-45.694,13.353-86.82,41.667-115.802,79.728c-29.951,39.335-45.783,86.327-45.783,135.893
		c0,123.749,100.679,224.426,224.428,224.426S475.77,410.322,475.768,286.574C475.768,237.008,459.937,190.016,429.985,150.681z"/>
</g>
</svg>
