<?xml version="1.0" encoding="utf-8"?>
<!-- Generator: Adobe Illustrator 16.0.0, SVG Export Plug-In . SVG Version: 6.00 Build 0)  -->
<!DOCTYPE svg PUBLIC "-//W3C//DTD SVG 1.1//EN" "http://www.w3.org/Graphics/SVG/1.1/DTD/svg11.dtd">
<svg version="1.1" id="Camada_1" xmlns="http://www.w3.org/2000/svg" xmlns:xlink="http://www.w3.org/1999/xlink" x="0px" y="0px"
	 width="510.236px" height="510.236px" viewBox="0 0 510.236 510.236" enable-background="new 0 0 510.236 510.236"
	 xml:space="preserve">
<g id="icomoon-ignore">
</g>
<g>
	<g>
		<path d="M255.607,93.206c-25.451,0-52.826,7.684-68.676,19.209l11.526,30.255c12.007-9.125,31.217-14.887,48.505-14.887
			c30.253,0.479,45.62,16.808,45.62,41.3c0,21.611-12.003,40.341-33.612,65.793c-24.015,28.814-32.655,57.148-29.778,83.081
			l0.964,12.485h37.455l-0.479-12.485c-1.442-24.493,6.243-45.622,27.372-70.596c23.052-27.374,41.305-50.904,41.305-83.562
			C335.809,127.302,310.837,93.206,255.607,93.206z"/>
		<path d="M248.402,367.423c-16.807,0-28.814,12.485-28.814,30.255c0,16.807,11.525,29.774,28.336,29.774
			c17.766,0,28.814-12.968,28.814-29.774C276.738,379.908,265.211,367.423,248.402,367.423z"/>
	</g>
	<path d="M435.516,74.723C387.331,26.537,323.262,0,255.118,0S122.907,26.537,74.722,74.723
		C26.535,122.909-0.001,186.975-0.001,255.119c0,68.143,26.538,132.21,74.723,180.396c48.185,48.184,112.251,74.721,180.395,74.721
		s132.211-26.537,180.397-74.721c48.186-48.187,74.723-112.254,74.723-180.396C510.237,186.975,483.702,122.908,435.516,74.723z
		 M418.567,418.566c-43.659,43.659-101.706,67.703-163.449,67.703c-61.742,0-119.79-24.044-163.448-67.703
		C48.01,374.907,23.968,316.86,23.968,255.119c0-61.743,24.044-119.79,67.702-163.449c43.659-43.658,101.706-67.701,163.448-67.701
		c61.743,0,119.79,24.043,163.449,67.702c43.659,43.659,67.703,101.707,67.703,163.448
		C486.27,316.862,462.224,374.907,418.567,418.566z"/>
</g>
</svg>
