<?xml version="1.0" encoding="utf-8"?>
<!-- Generator: Adobe Illustrator 16.0.0, SVG Export Plug-In . SVG Version: 6.00 Build 0)  -->
<!DOCTYPE svg PUBLIC "-//W3C//DTD SVG 1.1//EN" "http://www.w3.org/Graphics/SVG/1.1/DTD/svg11.dtd">
<svg version="1.1" id="Camada_1" xmlns="http://www.w3.org/2000/svg" xmlns:xlink="http://www.w3.org/1999/xlink" x="0px" y="0px"
	 width="510.236px" height="510.236px" viewBox="0 0 510.236 510.236" enable-background="new 0 0 510.236 510.236"
	 xml:space="preserve">
<g id="icomoon-ignore">
</g>
<g>
	<g>
		<g>
			<path d="M404.915,510.236H105.32c-33.601,0-60.936-25.849-60.936-57.621V220.28c0-31.766,27.335-57.61,60.936-57.61h13.854
				v-35.375C119.174,57.104,180.158,0,255.117,0c74.84,0,135.727,57.104,135.727,127.296v35.375h14.07
				c33.6,0,60.938,25.844,60.938,57.61v232.335C465.852,484.388,438.514,510.236,404.915,510.236z M105.32,184.678
				c-21.465,0-38.928,15.971-38.928,35.602v232.335c0,19.637,17.463,35.613,38.928,35.613h299.595
				c21.465,0,38.93-15.977,38.93-35.613V220.28c0-19.631-17.465-35.602-38.93-35.602h-25.074c-6.078,0-11.004-4.927-11.004-11.004
				v-46.378c0-58.056-51.014-105.288-113.719-105.288c-62.824,0-113.936,47.232-113.936,105.288v46.378
				c0,6.077-4.927,11.004-11.004,11.004H105.32z M255.117,393.943c-33.601,0-60.936-25.741-60.936-57.382
				c0-31.772,27.335-57.62,60.936-57.62c33.6,0,60.936,25.848,60.936,57.62C316.053,368.202,288.718,393.943,255.117,393.943z
				 M255.117,300.949c-21.465,0-38.928,15.976-38.928,35.612c0,19.505,17.463,35.374,38.928,35.374
				c21.465,0,38.928-15.869,38.928-35.374C294.046,316.925,276.583,300.949,255.117,300.949z M332.573,184.678H177.662
				c-6.077,0-11.004-4.927-11.004-11.004v-46.378c0-45.837,39.683-83.128,88.46-83.128c48.776,0,88.459,37.291,88.459,83.128v46.378
				C343.577,179.751,338.651,184.678,332.573,184.678z M188.666,162.67h132.903v-35.375c0-33.702-29.811-61.12-66.452-61.12
				c-36.642,0-66.452,27.418-66.452,61.12V162.67z"/>
		</g>
	</g>
</g>
</svg>
