<?xml version="1.0" encoding="utf-8"?>
<!-- Generator: Adobe Illustrator 16.0.0, SVG Export Plug-In . SVG Version: 6.00 Build 0)  -->
<!DOCTYPE svg PUBLIC "-//W3C//DTD SVG 1.1//EN" "http://www.w3.org/Graphics/SVG/1.1/DTD/svg11.dtd">
<svg version="1.1" id="Camada_1" xmlns="http://www.w3.org/2000/svg" xmlns:xlink="http://www.w3.org/1999/xlink" x="0px" y="0px"
	 width="512px" height="512px" viewBox="0 0 512 512" enable-background="new 0 0 512 512" xml:space="preserve">
<g>
	<path d="M415.09,437.328c-1.859,0-3.713-0.471-5.377-1.402l-153.391-85.899c-2.846-1.594-4.838-4.369-5.439-7.575
		c-0.6-3.207,0.253-6.516,2.33-9.031l128.762-155.995L185.679,316.962c-3.087,2.195-7.084,2.646-10.582,1.2L7.68,248.917
		c-4.2-1.737-6.899-5.877-6.795-10.421c0.104-4.544,2.991-8.556,7.266-10.099L496.379,52.212c3.797-1.369,8.035-0.551,11.049,2.129
		c3.014,2.682,4.32,6.797,3.4,10.727l-85.023,363.761c-0.787,3.367-3.111,6.169-6.275,7.564
		C418.112,437.019,416.598,437.328,415.09,437.328z M278.576,337.265l129.127,72.312l77.082-329.784L42.366,239.447L177.887,295.5
		l259.207-184.259c4.5-3.198,10.672-2.568,14.432,1.473c3.76,4.042,3.943,10.244,0.43,14.501L278.576,337.265z"/>
	<path d="M184.561,460.441c-1.567,0-3.145-0.335-4.622-1.019c-3.89-1.802-6.38-5.698-6.38-9.985v-108.45
		c0-3.914,2.08-7.533,5.46-9.505c3.38-1.973,7.555-2,10.962-0.073l76.695,43.389c3.131,1.771,5.197,4.961,5.537,8.541
		c0.338,3.581-1.094,7.102-3.836,9.428l-76.696,65.062C189.654,459.549,187.12,460.441,184.561,460.441z M195.567,359.855v65.816
		l46.545-39.484L195.567,359.855z"/>
</g>
</svg>
