<?xml version="1.0" encoding="utf-8"?>
<!-- Generator: Adobe Illustrator 16.0.0, SVG Export Plug-In . SVG Version: 6.00 Build 0)  -->
<!DOCTYPE svg PUBLIC "-//W3C//DTD SVG 1.1//EN" "http://www.w3.org/Graphics/SVG/1.1/DTD/svg11.dtd">
<svg version="1.1" id="Camada_1" xmlns="http://www.w3.org/2000/svg" xmlns:xlink="http://www.w3.org/1999/xlink" x="0px" y="0px"
	 width="512px" height="512px" viewBox="0 0 512 512" enable-background="new 0 0 512 512" xml:space="preserve">
<g>
	<path d="M449.497,72.667H288.5V40.5h-64v32.167H64.503V105H64.5v223.5h-24v32h194.001v48.814c-37.331,4.381-64,16.219-64,30.185
		c0,17.71,32.873,32.001,85.999,32.001s85.999-14.291,85.999-32.001c0-13.966-26.67-25.804-64-30.185V360.5H471.5v-32h-23
		 M416.5,328.5h-320V105h320V328.5z"/>
	<rect x="192.5" y="136.5" width="192" height="31.5"/>
	<rect x="128.5" y="136.5" width="32" height="31.5"/>
	<rect x="192.5" y="200.5" width="192" height="31.5"/>
	<rect x="128.5" y="200.5" width="32" height="31.5"/>
	<rect x="192.5" y="264.5" width="192" height="31.5"/>
	<rect x="128.5" y="264.5" width="32" height="31.5"/>
</g>
</svg>
