<?xml version="1.0" encoding="utf-8"?>
<!-- Generator: Adobe Illustrator 16.0.0, SVG Export Plug-In . SVG Version: 6.00 Build 0)  -->
<!DOCTYPE svg PUBLIC "-//W3C//DTD SVG 1.1//EN" "http://www.w3.org/Graphics/SVG/1.1/DTD/svg11.dtd">
<svg version="1.1" id="Camada_1" xmlns="http://www.w3.org/2000/svg" xmlns:xlink="http://www.w3.org/1999/xlink" x="0px" y="0px"
	 width="512px" height="512px" viewBox="0 0 512 512" enable-background="new 0 0 512 512" xml:space="preserve">
<g>
	<path d="M255.999,171.297c-46.693,0-84.683,37.998-84.683,84.703s37.99,84.703,84.683,84.703c46.695,0,84.685-37.998,84.685-84.703
		S302.695,171.297,255.999,171.297z M255.999,317.904c-34.126,0-61.89-27.77-61.89-61.904c0-34.134,27.764-61.904,61.89-61.904
		c34.127,0,61.892,27.771,61.892,61.904C317.891,290.135,290.126,317.904,255.999,317.904z"/>
	<path d="M326.891,52.444C303.896,44.792,280.046,40.912,256,40.913l-11.396,0v114.19l11.397,0
		c11.815-0.001,23.541,1.907,34.854,5.672c5.465,1.818,10.843,4.089,15.988,6.75l9.84,5.092l55.226-99.805l-10.228-5.444
		C350.555,61.445,338.849,56.424,326.891,52.444z M307.25,142.585c-3.031-1.264-6.104-2.414-9.2-3.443
		c-9.995-3.327-20.264-5.452-30.653-6.349V64.035c17.727,1.01,35.27,4.375,52.298,10.042c7.09,2.36,14.082,5.127,20.89,8.265
		L307.25,142.585z"/>
	<path d="M484.006,141.813C453.515,80.896,401.131,35.501,336.504,13.992c-26.14-8.7-53.237-13.11-80.538-13.11
		c-53.093,0-104.155,16.317-147.664,47.189c-44.415,31.514-77.005,75.57-94.249,127.406C-7.45,240.119-2.5,309.269,27.992,370.187
		s82.877,106.312,147.503,127.821c26.138,8.699,53.235,13.11,80.538,13.11c0.003,0,0.002,0,0.006,0
		c53.089,0,104.15-16.318,147.658-47.188c44.416-31.513,77.006-75.568,94.25-127.405
		C519.45,271.882,514.499,202.732,484.006,141.813z M476.321,329.327c-15.703,47.204-45.376,87.319-85.81,116.008
		c-39.635,28.122-86.135,42.985-134.477,42.984c-24.853,0-49.529-4.02-73.342-11.944c-58.849-19.586-106.551-60.923-134.318-116.396
		c-27.767-55.473-32.274-118.44-12.692-177.305C51.384,135.47,81.056,95.355,121.49,66.667
		c39.634-28.122,86.135-42.986,134.477-42.986c24.852,0,49.526,4.019,73.341,11.944c58.849,19.586,106.551,60.923,134.318,116.396
		C491.393,207.494,495.901,270.462,476.321,329.327z"/>
</g>
</svg>
