<?xml version="1.0" encoding="utf-8"?>
<!-- Generator: Adobe Illustrator 16.0.0, SVG Export Plug-In . SVG Version: 6.00 Build 0)  -->
<!DOCTYPE svg PUBLIC "-//W3C//DTD SVG 1.1//EN" "http://www.w3.org/Graphics/SVG/1.1/DTD/svg11.dtd">
<svg version="1.1" id="Camada_1" xmlns="http://www.w3.org/2000/svg" xmlns:xlink="http://www.w3.org/1999/xlink" x="0px" y="0px"
	 width="512px" height="512px" viewBox="0 0 512 512" enable-background="new 0 0 512 512" xml:space="preserve">
<g>
	<path d="M472.008,376.061c-11.999-31.771-23.662-61.855-34.993-90.25c-11.328-28.394-22.562-55.433-33.717-81.124
		c-11.15-25.683-22.648-51.034-34.479-76.051H307.84c-11.819,25.019-23.31,50.369-34.456,76.051
		c-11.146,25.691-22.371,52.73-33.686,81.124c-11.311,28.396-22.88,58.482-34.698,90.25
		c-11.821,31.771-24.321,66.418-37.488,103.938h66.436c4.737-13.516,9.569-27.125,14.479-40.817
		c4.914-13.688,3.4-8.944,8.145-23.142h161.163c4.739,14.195,3.246,9.375,8.328,22.892c5.088,13.521,10.002,27.211,14.744,41.069
		h68.971C496.599,442.481,484,407.836,472.008,376.061z M276.192,352.082c10.816-30.077,24.339-64.412,34.317-90.102
		c9.966-25.687,18.839-47.485,26.615-65.406c7.435,17.239,16.229,38.875,26.367,64.898c10.143,26.028,22.8,60.53,33.622,90.607
		L276.192,352.082z"/>
	<path d="M218.5,256.308c-8.413-23.952-16.455-46.07-24.112-66.354c-7.66-20.281-15.104-39.488-22.339-57.614
		c-7.232-18.126-14.404-35.388-21.525-51.788c-7.118-16.396-14.459-32.58-22.01-48.552h-38.93
		c-7.545,15.972-14.879,32.156-21.996,48.552c-7.114,16.4-14.282,33.662-21.504,51.788c-7.223,18.126-14.607,37.335-22.152,57.614
		C16.386,210.237,8.406,232.355,0,256.307h42.412c3.022-8.627,6.106-17.316,9.242-26.058c3.139-8.738,2.172-5.71,5.2-14.772h102.887
		c3.023,9.062,2.07,5.984,5.314,14.613c3.248,8.63,6.385,17.371,9.413,26.218H218.5z M69.38,174.646
		c6.905-19.2,15.538-41.119,21.908-57.52c6.36-16.396,12.025-30.313,16.99-41.755c4.746,11.005,10.359,24.818,16.833,41.432
		c6.475,16.616,14.557,38.645,21.466,57.843H69.38z"/>
</g>
</svg>
