<?xml version="1.0" encoding="utf-8"?>
<!-- Generator: Adobe Illustrator 16.0.0, SVG Export Plug-In . SVG Version: 6.00 Build 0)  -->
<!DOCTYPE svg PUBLIC "-//W3C//DTD SVG 1.1//EN" "http://www.w3.org/Graphics/SVG/1.1/DTD/svg11.dtd">
<svg version="1.1" id="Camada_1" xmlns="http://www.w3.org/2000/svg" xmlns:xlink="http://www.w3.org/1999/xlink" x="0px" y="0px"
	 width="510.236px" height="510.236px" viewBox="0 0 510.236 510.236" enable-background="new 0 0 510.236 510.236"
	 xml:space="preserve">
<g id="icomoon-ignore">
</g>
<path d="M255.21,510.236c-68.16,0-132.243-26.528-180.443-74.696C26.552,387.357,0,323.283,0,255.119s26.553-132.24,74.767-180.422
	C122.968,26.528,187.051,0,255.21,0c68.152,0,132.204,26.529,180.356,74.701c48.151,48.17,74.67,112.244,74.67,180.417
	c0,68.174-26.519,132.247-74.67,180.417C387.414,483.708,323.362,510.236,255.21,510.236z M47.139,358.888
	c11.062,22.11,25.748,42.535,43.747,60.522c43.895,43.864,102.253,68.021,164.324,68.021c62.058,0,120.383-24.155,164.227-68.018
	c43.849-43.863,67.994-102.212,67.994-164.295c0-43.49-11.852-85.15-34.021-121.278l-12.654,18.479
	c-9.584,13.996-21.021,26.261-34.054,36.533l0.071,3.814c0,52.617-20.333,105.874-55.788,146.116
	c-19.274,21.881-42.212,39.077-68.173,51.112c-28.283,13.112-59.552,19.762-92.939,19.762c-41.63,0-82.079-11.838-116.972-34.233
	L47.139,358.888z M124.669,375.612c20.783,7.409,42.801,11.24,65.205,11.24c73.04,0,118.624-34.338,144-63.144
	c31.812-36.108,50.066-83.825,50.096-130.932l-0.298-15.214l4.796-3.5c2.758-2.01,5.438-4.122,8.039-6.33
	c-1.792,0.27-3.587,0.508-5.386,0.715l-52.816,6.059l45.687-27.185c2.217-1.319,4.334-2.771,6.344-4.346
	c-4.086,1.178-8.225,2.189-12.403,3.032l-6.241,1.258l-4.346-4.652c-11.582-12.4-27.378-19.229-44.476-19.229
	c-33.59,0-60.916,27.279-60.916,60.809c0,4.595,0.555,9.203,1.649,13.698l3.614,14.835l-15.25-0.747
	c-54.975-2.695-106.818-26.427-144.874-65.793c-1.286,4.977-1.946,10.136-1.946,15.35c0,20.431,10.132,39.327,27.104,50.547
	l33.498,22.146l-40.137-1.237c-6.427-0.198-12.644-1.075-18.614-2.621c6.189,21.392,23.842,38.331,46.445,42.856l47.276,9.462
	l-46.506,12.717c-5.566,1.521-11.255,2.467-16.976,2.823c10.974,15.806,29.019,25.827,48.893,26.174l32.131,0.56l-25.299,19.816
	C172.68,360.667,149.451,371.104,124.669,375.612z M43.277,350.773l36.924,3.708c5.831,0.587,11.082,0.872,16.053,0.872
	c21.147,0,41.48-4.824,59.943-14.104c-22.64-9.063-40.758-27.834-48.599-52.034l-5.769-17.81l3.889,0.641
	c-14.884-15.252-23.917-36.068-23.917-58.564v-20.561l8.871,5.067c-5.408-11.171-8.33-23.591-8.33-36.451
	c0-14.91,3.945-29.517,11.408-42.242l8.317-14.181l10.367,12.758c31.717,39.03,77.346,64.117,126.805,70.148
	c-0.061-1.275-0.091-2.551-0.091-3.827c0-46.104,37.557-83.613,83.721-83.613c21.229,0,41.01,7.679,56.389,21.76
	c12.736-3.167,24.966-8.203,36.428-15.007l12.417-7.372c-2.796-3.11-5.688-6.16-8.666-9.14
	C375.594,46.96,317.268,22.804,255.21,22.804c-62.071,0-120.43,24.158-164.324,68.023c-43.904,43.875-68.082,102.221-68.082,164.292
	C22.804,288.654,29.863,321.106,43.277,350.773z M435.985,109.201l-3.61,11.383c-1.69,5.336-3.899,10.449-6.576,15.271
	c0.327-0.14,0.656-0.283,0.983-0.425l21.593-9.439C444.513,120.233,440.383,114.634,435.985,109.201z"/>
</svg>
