<?xml version="1.0" encoding="utf-8"?>
<!-- Generator: Adobe Illustrator 16.0.0, SVG Export Plug-In . SVG Version: 6.00 Build 0)  -->
<!DOCTYPE svg PUBLIC "-//W3C//DTD SVG 1.1//EN" "http://www.w3.org/Graphics/SVG/1.1/DTD/svg11.dtd">
<svg version="1.1" id="Camada_1" xmlns="http://www.w3.org/2000/svg" xmlns:xlink="http://www.w3.org/1999/xlink" x="0px" y="0px"
	 width="512px" height="512px" viewBox="0 0 512 512" enable-background="new 0 0 512 512" xml:space="preserve">
<path d="M256.002,450.189c-78.201,0-153.891-5.182-224.966-15.4l-7.537-1.083l-1.886-7.378C7.857,372.5,0.882,315.194,0.882,256
	c0-59.193,6.975-116.5,20.731-170.33l1.886-7.377l7.538-1.083c71.081-10.218,146.771-15.399,224.965-15.399
	c78.202,0,153.89,5.182,224.962,15.399l7.537,1.083l1.885,7.377c13.757,53.83,20.732,111.137,20.732,170.33
	c0,59.192-6.976,116.498-20.732,170.328l-1.885,7.378l-7.537,1.083C409.89,445.008,334.202,450.189,256.002,450.189z
	 M41.864,413.291c67.8,9.357,139.797,14.1,214.139,14.1c74.341,0,146.335-4.742,214.135-14.1
	c12.068-49.836,18.182-102.709,18.182-157.291c0-54.585-6.113-107.457-18.182-157.291c-67.798-9.357-139.792-14.1-214.135-14.1
	c-74.336,0-146.333,4.742-214.139,14.1C29.796,148.543,23.681,201.415,23.681,256C23.681,310.584,29.796,363.457,41.864,413.291z
	 M183.673,367.529V144.471L369.555,256L183.673,367.529z M206.472,184.737v142.524L325.241,256L206.472,184.737z"/>
</svg>
